<svg width="32" height="32" viewBox="0 0 32 32" fill="none" xmlns="http://www.w3.org/2000/svg">
<path fill-rule="evenodd" clip-rule="evenodd" d="M13.0512 3.48166C12.4636 3.23854 11.8035 3.23854 11.216 3.48166L4.68155 6.18566C4.24346 6.36711 3.86894 6.67427 3.60525 7.06838C3.34156 7.46249 3.20053 7.92587 3.19995 8.40006V25.8033C3.19991 26.198 3.29721 26.5866 3.48324 26.9347C3.66927 27.2828 3.93828 27.5797 4.26645 27.799C4.59462 28.0183 4.97181 28.1533 5.36461 28.192C5.75741 28.2307 6.15369 28.1719 6.51835 28.0209L12.1344 25.6977L18.9504 28.5169C19.5375 28.7595 20.1968 28.7595 20.784 28.5169L27.3168 25.8129C27.7549 25.6318 28.1296 25.3249 28.3935 24.9311C28.6575 24.5373 28.7989 24.0742 28.8 23.6001V6.19526C28.7999 5.80076 28.7026 5.41236 28.5166 5.06443C28.3307 4.7165 28.0618 4.41977 27.7339 4.2005C27.4059 3.98124 27.029 3.84619 26.6364 3.80732C26.2438 3.76846 25.8477 3.82696 25.4832 3.97766L19.8672 6.30086L13.0512 3.48166ZM12.128 8.00006C12.4462 8.00006 12.7514 8.12649 12.9765 8.35153C13.2015 8.57657 13.328 8.8818 13.328 9.20006V19.6001C13.328 19.9183 13.2015 20.2235 12.9765 20.4486C12.7514 20.6736 12.4462 20.8001 12.128 20.8001C11.8097 20.8001 11.5045 20.6736 11.2794 20.4486C11.0544 20.2235 10.928 19.9183 10.928 19.6001V9.20006C10.928 8.8818 11.0544 8.57657 11.2794 8.35153C11.5045 8.12649 11.8097 8.00006 12.128 8.00006ZM21.072 12.4001C21.072 12.0818 20.9455 11.7766 20.7205 11.5515C20.4954 11.3265 20.1902 11.2001 19.872 11.2001C19.5537 11.2001 19.2485 11.3265 19.0234 11.5515C18.7984 11.7766 18.672 12.0818 18.672 12.4001V22.8001C18.672 23.1183 18.7984 23.4235 19.0234 23.6486C19.2485 23.8736 19.5537 24.0001 19.872 24.0001C20.1902 24.0001 20.4954 23.8736 20.7205 23.6486C20.9455 23.4235 21.072 23.1183 21.072 22.8001V12.4001Z" fill="#75787B"/>
</svg>
