<svg width="32" height="32" viewBox="0 0 32 32" fill="none" xmlns="http://www.w3.org/2000/svg">
<path fill-rule="evenodd" clip-rule="evenodd" d="M25.5808 4.8193C26.4648 4.91334 27.2828 5.33116 27.8771 5.99228C28.4715 6.65341 28.8002 7.51108 28.8 8.4001V18.8001C28.8 19.7549 28.4207 20.6706 27.7455 21.3457C27.0704 22.0208 26.1547 22.4001 25.2 22.4001H21.6V11.2001C21.6 10.1392 21.1785 9.12182 20.4284 8.37167C19.6782 7.62153 18.6608 7.2001 17.6 7.2001H13.0048C13.2315 6.55935 13.6349 5.9958 14.1683 5.57452C14.7016 5.15325 15.3433 4.89143 16.0192 4.8193C16.1132 3.93527 16.531 3.11729 17.1921 2.52293C17.8533 1.92857 18.7109 1.59985 19.6 1.6001H22C22.889 1.59985 23.7466 1.92857 24.4078 2.52293C25.0689 3.11729 25.4867 3.93527 25.5808 4.8193ZM18.4 5.2001C18.4 4.88184 18.5264 4.57661 18.7514 4.35157C18.9765 4.12653 19.2817 4.0001 19.6 4.0001H22C22.3182 4.0001 22.6234 4.12653 22.8485 4.35157C23.0735 4.57661 23.2 4.88184 23.2 5.2001V5.6001H18.4V5.2001Z" fill="#75787B"/>
<path fill-rule="evenodd" clip-rule="evenodd" d="M3.19995 11.2001C3.19995 10.7758 3.36852 10.3688 3.66858 10.0687C3.96864 9.76867 4.3756 9.6001 4.79995 9.6001H17.6C18.0243 9.6001 18.4313 9.76867 18.7313 10.0687C19.0314 10.3688 19.2 10.7758 19.2 11.2001V27.2001C19.2 27.6244 19.0314 28.0314 18.7313 28.3315C18.4313 28.6315 18.0243 28.8001 17.6 28.8001H4.79995C4.3756 28.8001 3.96864 28.6315 3.66858 28.3315C3.36852 28.0314 3.19995 27.6244 3.19995 27.2001V11.2001ZM6.39995 16.4001C6.39995 16.0818 6.52638 15.7766 6.75142 15.5516C6.97647 15.3265 7.28169 15.2001 7.59995 15.2001H14.8C15.1182 15.2001 15.4234 15.3265 15.6485 15.5516C15.8735 15.7766 16 16.0818 16 16.4001C16 16.7184 15.8735 17.0236 15.6485 17.2486C15.4234 17.4737 15.1182 17.6001 14.8 17.6001H7.59995C7.28169 17.6001 6.97647 17.4737 6.75142 17.2486C6.52638 17.0236 6.39995 16.7184 6.39995 16.4001ZM6.39995 22.0001C6.39995 21.6818 6.52638 21.3766 6.75142 21.1516C6.97647 20.9265 7.28169 20.8001 7.59995 20.8001H14.8C15.1182 20.8001 15.4234 20.9265 15.6485 21.1516C15.8735 21.3766 16 21.6818 16 22.0001C16 22.3184 15.8735 22.6236 15.6485 22.8486C15.4234 23.0737 15.1182 23.2001 14.8 23.2001H7.59995C7.28169 23.2001 6.97647 23.0737 6.75142 22.8486C6.52638 22.6236 6.39995 22.3184 6.39995 22.0001Z" fill="#75787B"/>
</svg>
