<svg width="32" height="32" viewBox="0 0 32 32" fill="none" xmlns="http://www.w3.org/2000/svg">
<path d="M16 14.3998C17.273 14.3998 18.4939 13.8941 19.3941 12.9939C20.2942 12.0937 20.8 10.8728 20.8 9.5998C20.8 8.32677 20.2942 7.10587 19.3941 6.20569C18.4939 5.30552 17.273 4.7998 16 4.7998C14.7269 4.7998 13.506 5.30552 12.6058 6.20569C11.7057 7.10587 11.2 8.32677 11.2 9.5998C11.2 10.8728 11.7057 12.0937 12.6058 12.9939C13.506 13.8941 14.7269 14.3998 16 14.3998ZM9.59996 12.7998C9.59996 13.6485 9.26282 14.4624 8.6627 15.0625C8.06258 15.6627 7.24865 15.9998 6.39996 15.9998C5.55127 15.9998 4.73733 15.6627 4.13722 15.0625C3.5371 14.4624 3.19996 13.6485 3.19996 12.7998C3.19996 11.9511 3.5371 11.1372 4.13722 10.5371C4.73733 9.93695 5.55127 9.5998 6.39996 9.5998C7.24865 9.5998 8.06258 9.93695 8.6627 10.5371C9.26282 11.1372 9.59996 11.9511 9.59996 12.7998ZM2.38396 24.5214C2.11082 24.3662 1.90627 24.1136 1.81116 23.8142C1.52925 22.9011 1.52629 21.9247 1.80267 21.0099C2.07905 20.0952 2.62218 19.2837 3.36251 18.6795C4.10284 18.0753 5.00667 17.7058 5.95827 17.6183C6.90986 17.5309 7.8659 17.7294 8.70396 18.1886C6.98177 19.881 5.90385 22.1212 5.65596 24.523C5.61916 24.8782 5.63356 25.2302 5.69596 25.5694C4.52821 25.4684 3.39723 25.1106 2.38396 24.5214ZM26.304 25.5678C27.4716 25.4673 28.6026 25.11 29.616 24.5214C29.8885 24.3659 30.0924 24.1134 30.1872 23.8142C30.4695 22.901 30.4728 21.9243 30.1966 21.0093C29.9204 20.0942 29.3773 19.2825 28.6369 18.678C27.8965 18.0735 26.9925 17.7039 26.0406 17.6164C25.0888 17.5289 24.1326 17.7276 23.2944 18.187C25.0181 19.8794 26.0972 22.1202 26.3456 24.523C26.3812 24.872 26.3672 25.2243 26.304 25.5694V25.5678ZM28.8 12.7998C28.8 13.6485 28.4628 14.4624 27.8627 15.0625C27.2626 15.6627 26.4487 15.9998 25.6 15.9998C24.7513 15.9998 23.9373 15.6627 23.3372 15.0625C22.7371 14.4624 22.4 13.6485 22.4 12.7998C22.4 11.9511 22.7371 11.1372 23.3372 10.5371C23.9373 9.93695 24.7513 9.5998 25.6 9.5998C26.4487 9.5998 27.2626 9.93695 27.8627 10.5371C28.4628 11.1372 28.8 11.9511 28.8 12.7998ZM8.48636 25.9038C8.32856 25.7625 8.20623 25.586 8.12924 25.3887C8.05224 25.1913 8.02276 24.9786 8.04316 24.7678C8.24667 22.799 9.17283 20.9755 10.6426 19.6498C12.1124 18.3241 14.0214 17.5904 16.0008 17.5904C17.9801 17.5904 19.8891 18.3241 21.3589 19.6498C22.8287 20.9755 23.7548 22.799 23.9584 24.7678C23.9789 24.9787 23.9495 25.1914 23.8725 25.3887C23.7955 25.5861 23.6731 25.7626 23.5152 25.9038C21.4579 27.7709 18.7782 28.8036 16 28.7998C13.2223 28.8033 10.5431 27.7707 8.48636 25.9038Z" fill="#75787B"/>
</svg>
