<svg width="20" height="20" viewBox="0 0 20 20" fill="none" xmlns="http://www.w3.org/2000/svg">
<path d="M12 9.00005C11.7348 9.00005 11.4804 8.8947 11.2929 8.70716C11.1054 8.51963 11 8.26527 11 8.00005V3.00005C11 2.44805 11.45 1.99305 11.997 2.07005C13.4939 2.28585 14.8808 2.98039 15.9502 4.04982C17.0197 5.11925 17.7142 6.50613 17.93 8.00307C18.008 8.55007 17.552 9.00005 17 9.00005H12Z" fill="#75787B"/>
<path d="M8.003 4.06985C8.55 3.99385 9 4.44885 9 4.99985V9.99985C9 10.2651 9.10536 10.5194 9.29289 10.707C9.48043 10.8945 9.73478 10.9998 10 10.9998H15C15.552 10.9998 16.008 11.4498 15.93 11.9968C15.6769 13.7481 14.77 15.3386 13.3918 16.4484C12.0135 17.5581 10.2662 18.1048 8.5012 17.9785C6.73622 17.8522 5.08455 17.0622 3.87841 15.7675C2.67226 14.4728 2.00113 12.7693 2 10.9998C2.00009 9.31595 2.60701 7.68848 3.70953 6.4157C4.81205 5.14292 6.33633 4.3101 8.003 4.06985Z" fill="#75787B"/>
</svg>
