<svg width="32" height="32" viewBox="0 0 32 32" fill="none" xmlns="http://www.w3.org/2000/svg">
<path fill-rule="evenodd" clip-rule="evenodd" d="M9.19995 3.2002C9.51821 3.2002 9.82344 3.32662 10.0485 3.55167C10.2735 3.77671 10.4 4.08194 10.4 4.4002V6.4002H21.6V4.4002C21.6 4.08194 21.7264 3.77671 21.9514 3.55167C22.1765 3.32662 22.4817 3.2002 22.8 3.2002C23.1182 3.2002 23.4234 3.32662 23.6485 3.55167C23.8735 3.77671 24 4.08194 24 4.4002V6.4002H24.4C25.5669 6.4002 26.6861 6.86377 27.5112 7.68893C28.3364 8.51409 28.8 9.63324 28.8 10.8002V24.4002C28.8 25.5671 28.3364 26.6863 27.5112 27.5115C26.6861 28.3366 25.5669 28.8002 24.4 28.8002H7.59995C6.433 28.8002 5.31384 28.3366 4.48868 27.5115C3.66352 26.6863 3.19995 25.5671 3.19995 24.4002V10.8002C3.19995 9.63324 3.66352 8.51409 4.48868 7.68893C5.31384 6.86377 6.433 6.4002 7.59995 6.4002H7.99995V4.4002C7.99995 4.08194 8.12638 3.77671 8.35142 3.55167C8.57647 3.32662 8.88169 3.2002 9.19995 3.2002ZM7.59995 12.0002C6.49595 12.0002 5.59995 12.8962 5.59995 14.0002V24.4002C5.59995 25.5042 6.49595 26.4002 7.59995 26.4002H24.4C25.504 26.4002 26.4 25.5042 26.4 24.4002V14.0002C26.4 12.8962 25.504 12.0002 24.4 12.0002H7.59995Z" fill="#75787B"/>
</svg>
