<svg width="20" height="20" viewBox="0 0 20 20" fill="none" xmlns="http://www.w3.org/2000/svg">
<path d="M2.69527 14.7612L1.43327 17.9162C1.3969 18.0071 1.38799 18.1066 1.40766 18.2025C1.42733 18.2984 1.4747 18.3864 1.54391 18.4556C1.61311 18.5248 1.70111 18.5722 1.79699 18.5918C1.89286 18.6115 1.9924 18.6026 2.08327 18.5662L5.23827 17.3042C5.74132 17.1029 6.19823 16.8015 6.58127 16.4182L17.5003 5.50023C17.8981 5.1024 18.1216 4.56284 18.1216 4.00023C18.1216 3.43762 17.8981 2.89805 17.5003 2.50023C17.1024 2.1024 16.5629 1.87891 16.0003 1.87891C15.4377 1.87891 14.8981 2.1024 14.5003 2.50023L3.58027 13.4182C3.19738 13.8014 2.89629 14.2583 2.69527 14.7612Z" fill="black"/>
</svg>
